Coordinates
version=1
nRows=18
nColumns=28
inDegrees=yes

Units are S.I. units (second, meters, Newtons, ...)
Angles are in degrees.

endheader
time	pelvis_tilt	pelvis_list	pelvis_rotation	pelvis_tx	pelvis_ty	pelvis_tz	hip_flexion_r	hip_adduction_r	hip_rotation_r	knee_angle_r	ankle_angle_r	subtalar_angle_r	mtp_angle_r	hip_flexion_l	hip_adduction_l	hip_rotation_l	knee_angle_l	socket_flexion	socket_adduction	socket_rotation	socket_tx	socket_ty	socket_tz	foot_flex	lumbar_extension	lumbar_bending	lumbar_rotation
      0.00000000	      0.65058492	     -5.33549165	     -7.53390636	     -0.86439170	      0.99150105	      0.28820736	    -25.99716906	      6.34528580	      0.52666588	     -3.98299035	     13.31543422	     -2.08723181	      5.31950791	     23.96369965	    -10.19597417	      8.08834861	      4.92703182	      6.04799877	      0.00000000	      0.00000000	      0.00000000	      0.00000000	      0.00000000	     -0.47030272	    -11.76408165	      3.59758606	      9.79651328
      0.00416667	      0.59062353	     -5.35727534	     -7.45649750	     -0.85877252	      0.99085774	      0.28775662	    -26.10335427	      6.36155184	      0.60393823	     -4.21037545	     13.27445579	     -2.09491148	      5.32269106	     23.78204410	    -10.11629755	      8.10921125	      4.89280689	      6.02835484	      0.00000000	      0.00000000	      0.00000000	      0.00000000	      0.00000000	     -0.53865818	    -11.60734691	      3.61038411	      9.80102379
      0.00833333	      0.58030038	     -5.37862997	     -7.53964429	     -0.85328268	      0.99044764	      0.28748066	    -25.96681002	      6.29675416	      0.51562078	     -4.99785193	     13.05935115	     -2.35904406	      5.36076076	     23.43251633	    -10.11375738	      8.08899181	      5.08508932	      6.07821803	      0.00000000	      0.00000000	      0.00000000	      0.00000000	      0.00000000	     -1.02211951	    -11.61114659	      3.59535932	      9.83024866
      0.01250000	      0.53464618	     -5.39084850	     -7.54818646	     -0.84740619	      0.98991708	      0.28710716	    -25.91876887	      6.25873007	      0.51640761	     -5.57080298	     12.90278258	     -2.49541729	      5.39856124	     23.13754528	    -10.07122524	      8.13821095	      5.23185448	      6.14796489	      0.00000000	      0.00000000	      0.00000000	      0.00000000	      0.00000000	     -1.30562980	    -11.52098216	      3.57048612	      9.85611797
      0.01666667	      0.46786388	     -5.41366605	     -7.44437380	     -0.84108197	      0.98927905	      0.28655387	    -26.01401474	      6.28583511	      0.58391738	     -5.86097611	     12.84550340	     -2.51485399	      5.40479487	     22.91583911	     -9.97103214	      8.14868785	      5.22758405	      6.13367537	      0.00000000	      0.00000000	      0.00000000	      0.00000000	      0.00000000	     -1.37840992	    -11.33423743	      3.60998409	      9.86562892
      0.02083333	      0.42634708	     -5.42536086	     -7.53246769	     -0.83511022	      0.98886085	      0.28623599	    -25.74080973	      6.20404299	      0.38145077	     -6.88782976	     12.51785373	     -2.83720504	      5.44803664	     22.50837428	     -9.97201858	      8.17717497	      5.61014548	      6.30635622	      0.00000000	      0.00000000	      0.00000000	      0.00000000	      0.00000000	     -1.92866810	    -11.32061043	      3.58436076	      9.88266816
      0.02500000	      0.34023698	     -5.39094843	     -7.82650017	     -0.82837468	      0.98832746	      0.28636276	    -25.58180318	      5.99560227	      0.42835846	     -7.66261355	     12.29724024	     -2.88041055	      6.32591185	     21.76029655	    -10.05220679	      7.88630126	      6.80538675	      7.03348039	      0.00000000	      0.00000000	      0.00000000	      0.00000000	      0.00000000	     -2.10766177	    -11.11042722	      3.46203238	     10.28161362
      0.02916667	      0.31732936	     -5.37559166	     -7.76605773	     -0.82201781	      0.98792256	      0.28584734	    -25.53669746	      5.95556590	      0.43311141	     -8.28989283	     12.04692920	     -2.99941583	      6.35501407	     21.46506145	     -9.94046689	      8.01334704	      6.84388665	      7.02905055	      0.00000000	      0.00000000	      0.00000000	      0.00000000	      0.00000000	     -2.43614947	    -11.01273784	      3.41471941	     10.25613931
      0.03333333	      0.29160618	     -5.34730833	     -7.72403287	     -0.81565524	      0.98754157	      0.28533785	    -25.41304501	      5.89011956	      0.36922649	     -9.05103324	     11.75132072	     -3.19194279	      6.37960556	     21.14533789	     -9.82886533	      8.11452806	      6.96211572	      7.09952321	      0.00000000	      0.00000000	      0.00000000	      0.00000000	      0.00000000	     -2.72890515	    -10.91983437	      3.35519243	     10.21624078
      0.03750000	      0.24022646	     -5.30662168	     -7.70026147	     -0.80913442	      0.98719165	      0.28489948	    -25.22603713	      5.80893251	      0.22879097	     -9.88607782	     11.42031025	     -3.44437007	      6.42600350	     20.80291264	     -9.71680912	      8.14728237	      7.17644452	      7.23930988	      0.00000000	      0.00000000	      0.00000000	      0.00000000	      0.00000000	     -3.01915840	    -10.80519243	      3.28244332	     10.16649589
      0.04166667	      0.17460072	     -5.23627413	     -7.68157788	     -0.80252153	      0.98686334	      0.28449128	    -25.01992220	      5.69861178	      0.12665765	    -10.72310963	     11.07672352	     -3.68601581	      6.49677527	     20.45328873	     -9.58365582	      8.17648877	      7.43758923	      7.41123432	      0.00000000	      0.00000000	      0.00000000	      0.00000000	      0.00000000	     -3.26681317	    -10.65438713	      3.17962543	     10.11791403
      0.04583333	      0.10559301	     -5.13047731	     -7.69032582	     -0.79581286	      0.98657418	      0.28408232	    -24.77828765	      5.53308009	     -0.03444794	    -11.60847304	     10.68481492	     -3.97287558	      6.62809851	     20.07664683	     -9.42185541	      8.12722673	      7.76053731	      7.63499651	      0.00000000	      0.00000000	      0.00000000	      0.00000000	      0.00000000	     -3.50462910	    -10.44967187	      3.05845050	     10.07134977
      0.05000000	      0.01757815	     -4.98484897	     -7.69690510	     -0.78902609	      0.98634852	      0.28371271	    -24.49674894	      5.33619169	     -0.15743066	    -12.51537480	     10.24604739	     -4.24501147	      6.85325401	     19.72354970	     -9.22285152	      8.08989967	      8.05624516	      7.85491633	      0.00000000	      0.00000000	      0.00000000	      0.00000000	      0.00000000	     -3.70759560	    -10.23818234	      2.86328716	     10.02753687
      0.05416667	     -0.04898046	     -4.83312699	     -7.67351575	     -0.78234804	      0.98621173	      0.28335603	    -24.21336200	      5.15042746	     -0.26227055	    -13.44014069	      9.77012057	     -4.50042863	      7.09069034	     19.41764500	     -9.00499170	      8.07369483	      8.19591964	      7.98214592	      0.00000000	      0.00000000	      0.00000000	      0.00000000	      0.00000000	     -3.90485413	    -10.05095303	      2.62592690	      9.97018685
      0.05833333	     -0.09698141	     -4.64835843	     -7.64631395	     -0.77572040	      0.98617273	      0.28287607	    -23.92031061	      4.91657840	     -0.38122145	    -14.39768634	      9.25643214	     -4.76250988	      7.28992561	     19.10639803	     -8.74410031	      8.08727150	      8.32746978	      8.13746850	      0.00000000	      0.00000000	      0.00000000	      0.00000000	      0.00000000	     -4.09510777	     -9.89619287	      2.40485138	      9.89286774
      0.06250000	     -0.11198593	     -4.45868839	     -7.57962268	     -0.76912706	      0.98625422	      0.28245295	    -23.65551089	      4.71285845	     -0.40450406	    -15.35390292	      8.76749388	     -4.96988869	      7.39090916	     18.80228475	     -8.47196004	      8.17165973	      8.36872878	      8.25721992	      0.00000000	      0.00000000	      0.00000000	      0.00000000	      0.00000000	     -4.24497312	     -9.76988304	      2.13770135	      9.80070915
      0.06666667	     -0.18772075	     -4.06791947	     -7.58947711	     -0.76214074	      0.98625884	      0.28213624	    -23.24611329	      4.23980560	     -0.74534865	    -16.42229723	      8.03534769	     -5.32108039	      8.05003031	     18.49029274	     -8.00451666	      7.91276974	      8.51329483	      8.42217636	      0.00000000	      0.00000000	      0.00000000	      0.00000000	      0.00000000	     -4.36207779	     -9.48909765	      1.65254824	      9.68568535
      0.07083333	     -0.16775025	     -3.88449922	     -7.51523171	     -0.75565979	      0.98650684	      0.28157955	    -22.90552916	      4.00643053	     -0.91152963	    -17.54970373	      7.39196672	     -5.54766292	      8.26811492	     18.17081258	     -7.72322222	      7.95682066	      8.54317715	      8.56378066	      0.00000000	      0.00000000	      0.00000000	      0.00000000	      0.00000000	     -4.51318423	     -9.42167452	      1.41944409	      9.57193893
